# xmcd
#
# Track frame offsets:
#	150
#	21684
#	43774
#	63261
#	85902
#	107960
#	127793
#	145452
#	161282
#	182092
#	197286
#	216030
#
# Disc length: 3134 seconds
#
# Revision: 1
# Processed by: cddbd v1.5.2PL0 Copyright (c) Steve Scherf et al.
# Submitted via: audiograbber 1.82.02
#
DISCID=a50c3c0c
DTITLE=Oliver - A l'olimpia-2
DYEAR=2006
DGENRE=pop
TTITLE0=Nista nova
TTITLE1=kad u te nestane mi vire feat. Matija Dedic
TTITLE2=Moj lipi andele
TTITLE3=Dva put san umbra
TTITLE4=Cesarica
TTITLE5=Galeb i ja
TTITLE6=Nevera
TTITLE7=Et maintenant
TTITLE8=Vjeruj u ljubav
TTITLE9=Nedostajes mi ti
TTITLE10=Vridilo je
TTITLE11=Sve bi da za nju
EXTD=
EXTT0=
EXTT1=
EXTT2=
EXTT3=
EXTT4=
EXTT5=
EXTT6=
EXTT7=
EXTT8=
EXTT9=
EXTT10=
EXTT11=
PLAYORDER=
